<svg width="1507" height="806" viewBox="0 0 1507 806" fill="none" xmlns="http://www.w3.org/2000/svg">
<path d="M1505 137L1420 174.5V425.5L1505 386V137Z" fill="url(#paint0_linear_1313_420)" fill-opacity="0.4" stroke="url(#paint1_linear_1313_420)"/>
<path d="M1342 137L1420 174.5V408L1342 368.5V137Z" fill="url(#paint2_linear_1313_420)" fill-opacity="0.7" stroke="url(#paint3_linear_1313_420)"/>
<path d="M1420 174.5L1342 137L1426 104L1505 137L1420 174.5Z" fill="url(#paint4_linear_1313_420)" fill-opacity="0.4" stroke="url(#paint5_linear_1313_420)"/>
<g opacity="0.2">
<path d="M1069.58 219.614L1006.18 247.585V532.141L1069.58 502.678V219.614Z" fill="url(#paint6_linear_1313_420)" fill-opacity="0.4" stroke="url(#paint7_linear_1313_420)"/>
<path d="M948 219.614L1006.18 247.585V502.306L948 472.843V219.614Z" fill="url(#paint8_linear_1313_420)" fill-opacity="0.7" stroke="url(#paint9_linear_1313_420)"/>
<path d="M1006.18 247.585L948 219.614L1010.65 195L1069.58 219.614L1006.18 247.585Z" fill="url(#paint10_linear_1313_420)" fill-opacity="0.4" stroke="url(#paint11_linear_1313_420)"/>
</g>
<g opacity="0.4">
<path d="M960.912 302.583L918.197 321.428V513.141L960.912 493.291V302.583Z" fill="url(#paint12_linear_1313_420)" fill-opacity="0.4" stroke="url(#paint13_linear_1313_420)"/>
<path d="M879 302.583L918.197 321.428V608L879 588.15V302.583Z" fill="url(#paint14_linear_1313_420)" fill-opacity="0.7" stroke="url(#paint15_linear_1313_420)"/>
<path d="M918.197 321.428L879 302.583L921.212 286L960.912 302.583L918.197 321.428Z" fill="url(#paint16_linear_1313_420)" fill-opacity="0.4" stroke="url(#paint17_linear_1313_420)"/>
</g>
<g opacity="0.7">
<path d="M1064.58 442.11L1023.08 460.418V646.662L1064.58 627.379V442.11Z" fill="url(#paint18_linear_1313_420)" fill-opacity="0.4" stroke="url(#paint19_linear_1313_420)"/>
<path d="M985 442.11L1023.08 460.418V767L985 747.716V442.11Z" fill="url(#paint20_linear_1313_420)" fill-opacity="0.7" stroke="url(#paint21_linear_1313_420)"/>
<path d="M1023.08 460.417L985 442.11L1026.01 426L1064.58 442.11L1023.08 460.417Z" fill="url(#paint22_linear_1313_420)" fill-opacity="0.4" stroke="url(#paint23_linear_1313_420)"/>
</g>
<g opacity="0.6">
<path d="M1370 315.914L1303.25 345.362V804.518L1370 773.5V315.914Z" fill="url(#paint24_linear_1313_420)" fill-opacity="0.4" stroke="url(#paint25_linear_1313_420)"/>
<path d="M1242 315.914L1303.25 345.362V753L1242 721.982V315.914Z" fill="url(#paint26_linear_1313_420)" fill-opacity="0.7" stroke="url(#paint27_linear_1313_420)"/>
<path d="M1303.25 345.362L1242 315.914L1307.96 290L1370 315.914L1303.25 345.362Z" fill="url(#paint28_linear_1313_420)" fill-opacity="0.4" stroke="url(#paint29_linear_1313_420)"/>
</g>
<g opacity="0.6">
<path d="M1113.14 311.783L1080.22 326.31V610.561L1113.14 595.259V311.783Z" fill="url(#paint30_linear_1313_420)" fill-opacity="0.4" stroke="url(#paint31_linear_1313_420)"/>
<path d="M1050 311.783L1080.22 326.31V569.99L1050 554.689V311.783Z" fill="url(#paint32_linear_1313_420)" fill-opacity="0.7" stroke="url(#paint33_linear_1313_420)"/>
<path d="M1080.22 326.31L1050 311.783L1082.54 299L1113.14 311.783L1080.22 326.31Z" fill="url(#paint34_linear_1313_420)" fill-opacity="0.4" stroke="url(#paint35_linear_1313_420)"/>
</g>
<g opacity="0.3">
<path d="M973 127.932L944.841 140.356V383.45L973 370.365V127.932Z" fill="url(#paint36_linear_1313_420)" fill-opacity="0.4" stroke="url(#paint37_linear_1313_420)"/>
<path d="M919 127.932L944.841 140.356V348.754L919 335.668V127.932Z" fill="url(#paint38_linear_1313_420)" fill-opacity="0.7" stroke="url(#paint39_linear_1313_420)"/>
<path d="M944.84 140.356L919 127.932L946.828 117L973 127.932L944.84 140.356Z" fill="url(#paint40_linear_1313_420)" fill-opacity="0.4" stroke="url(#paint41_linear_1313_420)"/>
</g>
<g opacity="0.3">
<path d="M1281 128.337L1251.8 141.221V393.319L1281 379.749V128.337Z" fill="url(#paint42_linear_1313_420)" fill-opacity="0.4" stroke="url(#paint43_linear_1313_420)"/>
<path d="M1225 128.337L1251.8 141.221V357.338L1225 343.767V128.337Z" fill="url(#paint44_linear_1313_420)" fill-opacity="0.7" stroke="url(#paint45_linear_1313_420)"/>
<path d="M1251.8 141.221L1225 128.337L1253.86 117L1281 128.337L1251.8 141.221Z" fill="url(#paint46_linear_1313_420)" fill-opacity="0.4" stroke="url(#paint47_linear_1313_420)"/>
</g>
<g opacity="0.6">
<path d="M415.142 439.783L382.215 454.31V738.561L415.142 723.259V439.783Z" fill="url(#paint48_linear_1313_420)" fill-opacity="0.4" stroke="url(#paint49_linear_1313_420)"/>
<path d="M352 439.783L382.215 454.31V697.99L352 682.689V439.783Z" fill="url(#paint50_linear_1313_420)" fill-opacity="0.7" stroke="url(#paint51_linear_1313_420)"/>
<path d="M382.215 454.31L352 439.783L384.54 427L415.142 439.783L382.215 454.31Z" fill="url(#paint52_linear_1313_420)" fill-opacity="0.4" stroke="url(#paint53_linear_1313_420)"/>
</g>
<path d="M1213.46 201.671L1175.68 218.342V544.56L1213.46 527V201.671Z" fill="url(#paint54_linear_1313_420)" fill-opacity="0.4" stroke="url(#paint55_linear_1313_420)"/>
<path d="M1141 201.671L1175.68 218.342V498L1141 480.439V201.671Z" fill="url(#paint56_linear_1313_420)" fill-opacity="0.7" stroke="url(#paint57_linear_1313_420)"/>
<path d="M1175.68 218.342L1141 201.671L1178.34 187L1213.46 201.671L1175.68 218.342Z" fill="url(#paint58_linear_1313_420)" fill-opacity="0.4" stroke="url(#paint59_linear_1313_420)"/>
<g opacity="0.3">
<path d="M1161.46 67.6707L1123.68 84.3419V410.56L1161.46 393V67.6707Z" fill="url(#paint60_linear_1313_420)" fill-opacity="0.4" stroke="url(#paint61_linear_1313_420)"/>
<path d="M1089 67.6707L1123.68 84.342V364L1089 346.439V67.6707Z" fill="url(#paint62_linear_1313_420)" fill-opacity="0.7" stroke="url(#paint63_linear_1313_420)"/>
<path d="M1123.68 84.342L1089 67.6707L1126.34 53L1161.46 67.6707L1123.68 84.342Z" fill="url(#paint64_linear_1313_420)" fill-opacity="0.4" stroke="url(#paint65_linear_1313_420)"/>
</g>
<path d="M301 328.914L234.252 358.362V657.945L301 626.926V328.914Z" fill="url(#paint66_linear_1313_420)" fill-opacity="0.4" stroke="url(#paint67_linear_1313_420)"/>
<path d="M173 328.914L234.252 358.362V626.534L173 595.515V328.914Z" fill="url(#paint68_linear_1313_420)" fill-opacity="0.7" stroke="url(#paint69_linear_1313_420)"/>
<path d="M234.252 358.362L173 328.914L238.963 303L301 328.914L234.252 358.362Z" fill="url(#paint70_linear_1313_420)" fill-opacity="0.4" stroke="url(#paint71_linear_1313_420)"/>
<path d="M555.659 331.759L507.34 353.077V569.945L555.659 547.49V331.759Z" fill="url(#paint72_linear_1313_420)" fill-opacity="0.4" stroke="url(#paint73_linear_1313_420)"/>
<path d="M463 331.759L507.34 353.077V547.206L463 524.752V331.759Z" fill="url(#paint74_linear_1313_420)" fill-opacity="0.7" stroke="url(#paint75_linear_1313_420)"/>
<path d="M507.34 353.077L463 331.759L510.751 313L555.659 331.759L507.34 353.077Z" fill="url(#paint76_linear_1313_420)" fill-opacity="0.4" stroke="url(#paint77_linear_1313_420)"/>
<g opacity="0.5">
<path d="M318.027 150.036L268.994 171.668V391.736L318.027 368.95V150.036Z" fill="url(#paint78_linear_1313_420)" fill-opacity="0.4" stroke="url(#paint79_linear_1313_420)"/>
<path d="M224 150.036L268.994 171.668V368.662L224 345.877V150.036Z" fill="url(#paint80_linear_1313_420)" fill-opacity="0.7" stroke="url(#paint81_linear_1313_420)"/>
<path d="M268.994 171.668L224 150.036L272.455 131L318.026 150.036L268.994 171.668Z" fill="url(#paint82_linear_1313_420)" fill-opacity="0.4" stroke="url(#paint83_linear_1313_420)"/>
</g>
<g opacity="0.5">
<path d="M468.943 78.7061L443.942 89.7358V305.618L468.943 294V78.7061Z" fill="url(#paint84_linear_1313_420)" fill-opacity="0.4" stroke="url(#paint85_linear_1313_420)"/>
<path d="M421 78.7061L443.942 89.7358V282L421 270.382V78.7061Z" fill="url(#paint86_linear_1313_420)" fill-opacity="0.7" stroke="url(#paint87_linear_1313_420)"/>
<path d="M443.942 89.7358L421 78.7061L445.707 69L468.943 78.7061L443.942 89.7358Z" fill="url(#paint88_linear_1313_420)" fill-opacity="0.4" stroke="url(#paint89_linear_1313_420)"/>
</g>
<g opacity="0.5">
<path d="M443.974 229.357L409.57 244.535V398.945L443.974 382.957V229.357Z" fill="url(#paint90_linear_1313_420)" fill-opacity="0.4" stroke="url(#paint91_linear_1313_420)"/>
<path d="M378 229.357L409.57 244.535V382.755L378 366.768V229.357Z" fill="url(#paint92_linear_1313_420)" fill-opacity="0.7" stroke="url(#paint93_linear_1313_420)"/>
<path d="M409.57 244.535L378 229.357L411.999 216L443.973 229.357L409.57 244.535Z" fill="url(#paint94_linear_1313_420)" fill-opacity="0.4" stroke="url(#paint95_linear_1313_420)"/>
</g>
<g opacity="0.2">
<path d="M611.659 163.759L563.34 185.077V401.945L611.659 379.49V163.759Z" fill="url(#paint96_linear_1313_420)" fill-opacity="0.4" stroke="url(#paint97_linear_1313_420)"/>
<path d="M519 163.759L563.34 185.077V379.206L519 356.752V163.759Z" fill="url(#paint98_linear_1313_420)" fill-opacity="0.7" stroke="url(#paint99_linear_1313_420)"/>
<path d="M563.34 185.077L519 163.759L566.751 145L611.659 163.759L563.34 185.077Z" fill="url(#paint100_linear_1313_420)" fill-opacity="0.4" stroke="url(#paint101_linear_1313_420)"/>
</g>
<path d="M153.872 182.747L74.6748 217.687V573.141L153.872 536.338V182.747Z" fill="url(#paint102_linear_1313_420)" fill-opacity="0.4" stroke="url(#paint103_linear_1313_420)"/>
<path d="M2.00006 182.747L74.6748 217.687V535.872L2.00006 499.069V182.747Z" fill="url(#paint104_linear_1313_420)" fill-opacity="0.7" stroke="url(#paint105_linear_1313_420)"/>
<path d="M74.6747 217.687L2 182.747L80.2651 152L153.872 182.747L74.6747 217.687Z" fill="url(#paint106_linear_1313_420)" fill-opacity="0.4" stroke="url(#paint107_linear_1313_420)"/>
<path d="M817.463 70.1604L739.84 104.406V452.796L817.463 416.724V70.1604Z" fill="url(#paint108_linear_1313_420)" fill-opacity="0.4" stroke="url(#paint109_linear_1313_420)"/>
<path d="M668.61 70.1604L739.84 104.406V416.267L668.61 380.195V70.1604Z" fill="url(#paint110_linear_1313_420)" fill-opacity="0.7" stroke="url(#paint111_linear_1313_420)"/>
<path d="M739.84 104.406L668.61 70.1604L745.319 40.0244L817.463 70.1604L739.84 104.406Z" fill="url(#paint112_linear_1313_420)" fill-opacity="0.4" stroke="url(#paint113_linear_1313_420)"/>
<path d="M817.463 51.8677L739.84 86.1131V434.503L817.463 398.431V51.8677Z" fill="url(#paint114_linear_1313_420)" fill-opacity="0.4" stroke="url(#paint115_linear_1313_420)"/>
<path d="M668.61 51.8677L739.84 86.1131V397.974L668.61 361.903V51.8677Z" fill="url(#paint116_linear_1313_420)" fill-opacity="0.7" stroke="url(#paint117_linear_1313_420)"/>
<path d="M739.84 86.113L668.61 51.8676L745.319 21.7317L817.463 51.8676L739.84 86.113Z" fill="url(#paint118_linear_1313_420)" fill-opacity="0.4" stroke="url(#paint119_linear_1313_420)"/>
<path d="M817.463 31.136L739.84 65.3814V635.852L817.463 599.781V31.136Z" fill="url(#paint120_linear_1313_420)" fill-opacity="0.4" stroke="url(#paint121_linear_1313_420)"/>
<path d="M668.61 31.136L739.84 65.3814V612.585L668.61 576.514V31.136Z" fill="url(#paint122_linear_1313_420)" fill-opacity="0.7" stroke="url(#paint123_linear_1313_420)"/>
<path d="M739.84 65.3813L668.61 31.136L745.319 1L817.463 31.136L739.84 65.3813Z" fill="url(#paint124_linear_1313_420)" stroke="url(#paint125_linear_1313_420)"/>
<path d="M739.779 65.6341L668 31.2543L745.301 1L818 31.2543L739.779 65.6341Z" fill="url(#paint126_linear_1313_420)" stroke="url(#paint127_linear_1313_420)"/>
<line x1="739.75" y1="66.25" x2="739.75" y2="286.75" stroke="url(#paint128_linear_1313_420)"/>
<line x1="817.75" y1="36.25" x2="817.75" y2="167.5" stroke="url(#paint129_linear_1313_420)"/>
<line opacity="0.5" x1="668.5" y1="54.25" x2="668.5" y2="295.75" stroke="url(#paint130_linear_1313_420)"/>
<path d="M960.911 302.583L918.197 321.428V513.141L960.911 493.291V302.583Z" fill="url(#paint131_linear_1313_420)" fill-opacity="0.4" stroke="url(#paint132_linear_1313_420)"/>
<path d="M879 302.583L918.197 321.428V608L879 588.15V302.583Z" fill="url(#paint133_linear_1313_420)" fill-opacity="0.7" stroke="url(#paint134_linear_1313_420)"/>
<path d="M918.197 321.428L879 302.583L921.212 286L960.912 302.583L918.197 321.428Z" fill="url(#paint135_linear_1313_420)" fill-opacity="0.4" stroke="url(#paint136_linear_1313_420)"/>
<path d="M555.659 331.759L507.34 353.077V569.945L555.659 547.49V331.759Z" fill="url(#paint137_linear_1313_420)" fill-opacity="0.4" stroke="url(#paint138_linear_1313_420)"/>
<path d="M463 331.759L507.34 353.077V547.206L463 524.752V331.759Z" fill="url(#paint139_linear_1313_420)" fill-opacity="0.7" stroke="url(#paint140_linear_1313_420)"/>
<path d="M507.34 353.077L463 331.759L510.751 313L555.659 331.759L507.34 353.077Z" fill="url(#paint141_linear_1313_420)" fill-opacity="0.4" stroke="url(#paint142_linear_1313_420)"/>
<path d="M611.659 163.759L563.34 185.077V401.945L611.659 379.49V163.759Z" fill="url(#paint143_linear_1313_420)" fill-opacity="0.4" stroke="url(#paint144_linear_1313_420)"/>
<path d="M519 163.759L563.34 185.077V379.206L519 356.752V163.759Z" fill="url(#paint145_linear_1313_420)" fill-opacity="0.7" stroke="url(#paint146_linear_1313_420)"/>
<path d="M563.34 185.077L519 163.759L566.751 145L611.659 163.759L563.34 185.077Z" fill="url(#paint147_linear_1313_420)" fill-opacity="0.4" stroke="url(#paint148_linear_1313_420)"/>
<defs>
<linearGradient id="paint0_linear_1313_420" x1="1462.5" y1="137" x2="1463" y2="395" gradientUnits="userSpaceOnUse">
<stop stop-color="#0530AD"/>
<stop offset="0.916667" stop-color="#0530AD" stop-opacity="0"/>
</linearGradient>
<linearGradient id="paint1_linear_1313_420" x1="1462.5" y1="137" x2="1462.5" y2="350" gradientUnits="userSpaceOnUse">
<stop stop-color="#0530AD"/>
<stop offset="0.916667" stop-color="#0530AD" stop-opacity="0"/>
</linearGradient>
<linearGradient id="paint2_linear_1313_420" x1="1381" y1="137" x2="1381" y2="350" gradientUnits="userSpaceOnUse">
<stop stop-color="#0530AD"/>
<stop offset="0.916667" stop-color="#0530AD" stop-opacity="0"/>
</linearGradient>
<linearGradient id="paint3_linear_1313_420" x1="1381" y1="137" x2="1381" y2="350" gradientUnits="userSpaceOnUse">
<stop stop-color="#0530AD"/>
<stop offset="0.916667" stop-color="#0530AD" stop-opacity="0"/>
</linearGradient>
<linearGradient id="paint4_linear_1313_420" x1="1423.5" y1="104" x2="1423.5" y2="174.5" gradientUnits="userSpaceOnUse">
<stop stop-color="#0530AD" stop-opacity="0.67"/>
<stop offset="0.916667" stop-color="#0530AD" stop-opacity="0.47"/>
</linearGradient>
<linearGradient id="paint5_linear_1313_420" x1="1423.5" y1="104" x2="1423.5" y2="174.5" gradientUnits="userSpaceOnUse">
<stop stop-color="#0530AD"/>
<stop offset="0.916667" stop-color="#0530AD" stop-opacity="0"/>
</linearGradient>
<linearGradient id="paint6_linear_1313_420" x1="1037.88" y1="219.614" x2="1037.88" y2="485.15" gradientUnits="userSpaceOnUse">
<stop stop-color="#0530AD"/>
<stop offset="0.916667" stop-color="#0530AD" stop-opacity="0"/>
</linearGradient>
<linearGradient id="paint7_linear_1313_420" x1="1037.88" y1="219.614" x2="1037.88" y2="443.38" gradientUnits="userSpaceOnUse">
<stop stop-color="#0530AD"/>
<stop offset="0.916667" stop-color="#0530AD" stop-opacity="0"/>
</linearGradient>
<linearGradient id="paint8_linear_1313_420" x1="977.09" y1="219.614" x2="977.09" y2="496.338" gradientUnits="userSpaceOnUse">
<stop stop-color="#0530AD"/>
<stop offset="0.916667" stop-color="#0530AD" stop-opacity="0"/>
</linearGradient>
<linearGradient id="paint9_linear_1313_420" x1="977.09" y1="219.614" x2="977.09" y2="459.044" gradientUnits="userSpaceOnUse">
<stop stop-color="#0530AD"/>
<stop offset="0.885417" stop-color="#0530AD" stop-opacity="0"/>
</linearGradient>
<linearGradient id="paint10_linear_1313_420" x1="1008.79" y1="195" x2="1008.79" y2="247.585" gradientUnits="userSpaceOnUse">
<stop stop-color="#0530AD" stop-opacity="0.67"/>
<stop offset="0.916667" stop-color="#0530AD" stop-opacity="0.47"/>
</linearGradient>
<linearGradient id="paint11_linear_1313_420" x1="1008.79" y1="195" x2="1008.79" y2="247.585" gradientUnits="userSpaceOnUse">
<stop stop-color="#0530AD"/>
<stop offset="0.916667" stop-color="#0530AD" stop-opacity="0"/>
</linearGradient>
<linearGradient id="paint12_linear_1313_420" x1="939.554" y1="302.583" x2="939.554" y2="481.482" gradientUnits="userSpaceOnUse">
<stop stop-color="#0530AD"/>
<stop offset="0.916667" stop-color="#0530AD" stop-opacity="0"/>
</linearGradient>
<linearGradient id="paint13_linear_1313_420" x1="939.554" y1="302.583" x2="939.554" y2="453.341" gradientUnits="userSpaceOnUse">
<stop stop-color="#0530AD"/>
<stop offset="0.916667" stop-color="#0530AD" stop-opacity="0"/>
</linearGradient>
<linearGradient id="paint14_linear_1313_420" x1="898.599" y1="302.583" x2="898.599" y2="598" gradientUnits="userSpaceOnUse">
<stop stop-color="#0530AD"/>
<stop offset="0.916667" stop-color="#0530AD" stop-opacity="0"/>
</linearGradient>
<linearGradient id="paint15_linear_1313_420" x1="898.599" y1="302.583" x2="898.599" y2="463.894" gradientUnits="userSpaceOnUse">
<stop stop-color="#0530AD"/>
<stop offset="0.885417" stop-color="#0530AD" stop-opacity="0"/>
</linearGradient>
<linearGradient id="paint16_linear_1313_420" x1="919.956" y1="286" x2="919.956" y2="321.428" gradientUnits="userSpaceOnUse">
<stop stop-color="#0530AD" stop-opacity="0.67"/>
<stop offset="0.916667" stop-color="#0530AD" stop-opacity="0.47"/>
</linearGradient>
<linearGradient id="paint17_linear_1313_420" x1="919.956" y1="286" x2="919.956" y2="321.428" gradientUnits="userSpaceOnUse">
<stop stop-color="#0530AD"/>
<stop offset="0.916667" stop-color="#0530AD" stop-opacity="0"/>
</linearGradient>
<linearGradient id="paint18_linear_1313_420" x1="1043.83" y1="442.11" x2="1043.83" y2="615.906" gradientUnits="userSpaceOnUse">
<stop stop-color="#0530AD"/>
<stop offset="0.916667" stop-color="#0530AD" stop-opacity="0"/>
</linearGradient>
<linearGradient id="paint19_linear_1313_420" x1="1043.83" y1="442.11" x2="1043.83" y2="588.568" gradientUnits="userSpaceOnUse">
<stop stop-color="#0530AD"/>
<stop offset="0.916667" stop-color="#0530AD" stop-opacity="0"/>
</linearGradient>
<linearGradient id="paint20_linear_1313_420" x1="1004.04" y1="442.11" x2="1004.04" y2="738" gradientUnits="userSpaceOnUse">
<stop stop-color="#0530AD"/>
<stop offset="0.916667" stop-color="#0530AD" stop-opacity="0"/>
</linearGradient>
<linearGradient id="paint21_linear_1313_420" x1="1004.04" y1="442.11" x2="1004.04" y2="598.82" gradientUnits="userSpaceOnUse">
<stop stop-color="#0530AD"/>
<stop offset="0.885417" stop-color="#0530AD" stop-opacity="0"/>
</linearGradient>
<linearGradient id="paint22_linear_1313_420" x1="1024.79" y1="426" x2="1024.79" y2="460.417" gradientUnits="userSpaceOnUse">
<stop stop-color="#0530AD" stop-opacity="0.67"/>
<stop offset="0.916667" stop-color="#0530AD" stop-opacity="0.47"/>
</linearGradient>
<linearGradient id="paint23_linear_1313_420" x1="1024.79" y1="426" x2="1024.79" y2="460.417" gradientUnits="userSpaceOnUse">
<stop stop-color="#0530AD"/>
<stop offset="0.916667" stop-color="#0530AD" stop-opacity="0"/>
</linearGradient>
<linearGradient id="paint24_linear_1313_420" x1="1336.63" y1="315.914" x2="1336.63" y2="705.5" gradientUnits="userSpaceOnUse">
<stop stop-color="#0530AD"/>
<stop offset="0.916667" stop-color="#0530AD" stop-opacity="0"/>
</linearGradient>
<linearGradient id="paint25_linear_1313_420" x1="1336.63" y1="315.914" x2="1336.63" y2="483.178" gradientUnits="userSpaceOnUse">
<stop stop-color="#0530AD"/>
<stop offset="0.916667" stop-color="#0530AD" stop-opacity="0"/>
</linearGradient>
<linearGradient id="paint26_linear_1313_420" x1="1272.63" y1="315.914" x2="1272.63" y2="725" gradientUnits="userSpaceOnUse">
<stop stop-color="#0530AD"/>
<stop offset="0.916667" stop-color="#0530AD" stop-opacity="0"/>
</linearGradient>
<linearGradient id="paint27_linear_1313_420" x1="1272.63" y1="315.914" x2="1272.63" y2="567.988" gradientUnits="userSpaceOnUse">
<stop stop-color="#0530AD"/>
<stop offset="0.885417" stop-color="#0530AD" stop-opacity="0"/>
</linearGradient>
<linearGradient id="paint28_linear_1313_420" x1="1306" y1="290" x2="1306" y2="345.362" gradientUnits="userSpaceOnUse">
<stop stop-color="#0530AD" stop-opacity="0.67"/>
<stop offset="0.916667" stop-color="#0530AD" stop-opacity="0.47"/>
</linearGradient>
<linearGradient id="paint29_linear_1313_420" x1="1306" y1="290" x2="1306" y2="345.362" gradientUnits="userSpaceOnUse">
<stop stop-color="#0530AD"/>
<stop offset="0.916667" stop-color="#0530AD" stop-opacity="0"/>
</linearGradient>
<linearGradient id="paint30_linear_1313_420" x1="1096.68" y1="311.783" x2="1096.68" y2="567.376" gradientUnits="userSpaceOnUse">
<stop stop-color="#0530AD"/>
<stop offset="0.916667" stop-color="#0530AD" stop-opacity="0"/>
</linearGradient>
<linearGradient id="paint31_linear_1313_420" x1="1096.68" y1="311.783" x2="1096.68" y2="394.294" gradientUnits="userSpaceOnUse">
<stop stop-color="#0530AD"/>
<stop offset="0.916667" stop-color="#0530AD" stop-opacity="0"/>
</linearGradient>
<linearGradient id="paint32_linear_1313_420" x1="1065.11" y1="311.783" x2="1065.11" y2="516.838" gradientUnits="userSpaceOnUse">
<stop stop-color="#0530AD"/>
<stop offset="0.916667" stop-color="#0530AD" stop-opacity="0"/>
</linearGradient>
<linearGradient id="paint33_linear_1313_420" x1="1065.11" y1="311.783" x2="1065.11" y2="436.131" gradientUnits="userSpaceOnUse">
<stop stop-color="#0530AD"/>
<stop offset="0.885417" stop-color="#0530AD" stop-opacity="0"/>
</linearGradient>
<linearGradient id="paint34_linear_1313_420" x1="1081.57" y1="299" x2="1081.57" y2="326.31" gradientUnits="userSpaceOnUse">
<stop stop-color="#0530AD" stop-opacity="0.67"/>
<stop offset="0.916667" stop-color="#0530AD" stop-opacity="0.47"/>
</linearGradient>
<linearGradient id="paint35_linear_1313_420" x1="1081.57" y1="299" x2="1081.57" y2="326.31" gradientUnits="userSpaceOnUse">
<stop stop-color="#0530AD"/>
<stop offset="0.916667" stop-color="#0530AD" stop-opacity="0"/>
</linearGradient>
<linearGradient id="paint36_linear_1313_420" x1="958.92" y1="127.932" x2="958.92" y2="346.518" gradientUnits="userSpaceOnUse">
<stop stop-color="#0530AD"/>
<stop offset="0.916667" stop-color="#0530AD" stop-opacity="0"/>
</linearGradient>
<linearGradient id="paint37_linear_1313_420" x1="958.92" y1="127.932" x2="958.92" y2="198.497" gradientUnits="userSpaceOnUse">
<stop stop-color="#0530AD"/>
<stop offset="0.916667" stop-color="#0530AD" stop-opacity="0"/>
</linearGradient>
<linearGradient id="paint38_linear_1313_420" x1="931.92" y1="127.932" x2="931.92" y2="303.297" gradientUnits="userSpaceOnUse">
<stop stop-color="#0530AD"/>
<stop offset="0.916667" stop-color="#0530AD" stop-opacity="0"/>
</linearGradient>
<linearGradient id="paint39_linear_1313_420" x1="931.92" y1="127.932" x2="931.92" y2="234.276" gradientUnits="userSpaceOnUse">
<stop stop-color="#0530AD"/>
<stop offset="0.885417" stop-color="#0530AD" stop-opacity="0"/>
</linearGradient>
<linearGradient id="paint40_linear_1313_420" x1="946" y1="117" x2="946" y2="140.356" gradientUnits="userSpaceOnUse">
<stop stop-color="#0530AD" stop-opacity="0.67"/>
<stop offset="0.916667" stop-color="#0530AD" stop-opacity="0.47"/>
</linearGradient>
<linearGradient id="paint41_linear_1313_420" x1="946" y1="117" x2="946" y2="140.356" gradientUnits="userSpaceOnUse">
<stop stop-color="#0530AD"/>
<stop offset="0.916667" stop-color="#0530AD" stop-opacity="0"/>
</linearGradient>
<linearGradient id="paint42_linear_1313_420" x1="1266.4" y1="128.337" x2="1266.4" y2="355.019" gradientUnits="userSpaceOnUse">
<stop stop-color="#0530AD"/>
<stop offset="0.916667" stop-color="#0530AD" stop-opacity="0"/>
</linearGradient>
<linearGradient id="paint43_linear_1313_420" x1="1266.4" y1="128.337" x2="1266.4" y2="201.515" gradientUnits="userSpaceOnUse">
<stop stop-color="#0530AD"/>
<stop offset="0.916667" stop-color="#0530AD" stop-opacity="0"/>
</linearGradient>
<linearGradient id="paint44_linear_1313_420" x1="1238.4" y1="128.337" x2="1238.4" y2="310.197" gradientUnits="userSpaceOnUse">
<stop stop-color="#0530AD"/>
<stop offset="0.916667" stop-color="#0530AD" stop-opacity="0"/>
</linearGradient>
<linearGradient id="paint45_linear_1313_420" x1="1238.4" y1="128.337" x2="1238.4" y2="238.619" gradientUnits="userSpaceOnUse">
<stop stop-color="#0530AD"/>
<stop offset="0.885417" stop-color="#0530AD" stop-opacity="0"/>
</linearGradient>
<linearGradient id="paint46_linear_1313_420" x1="1253" y1="117" x2="1253" y2="141.221" gradientUnits="userSpaceOnUse">
<stop stop-color="#0530AD" stop-opacity="0.67"/>
<stop offset="0.916667" stop-color="#0530AD" stop-opacity="0.47"/>
</linearGradient>
<linearGradient id="paint47_linear_1313_420" x1="1253" y1="117" x2="1253" y2="141.221" gradientUnits="userSpaceOnUse">
<stop stop-color="#0530AD"/>
<stop offset="0.916667" stop-color="#0530AD" stop-opacity="0"/>
</linearGradient>
<linearGradient id="paint48_linear_1313_420" x1="398.679" y1="439.783" x2="398.679" y2="695.376" gradientUnits="userSpaceOnUse">
<stop stop-color="#0530AD"/>
<stop offset="0.916667" stop-color="#0530AD" stop-opacity="0"/>
</linearGradient>
<linearGradient id="paint49_linear_1313_420" x1="398.679" y1="439.783" x2="398.679" y2="522.294" gradientUnits="userSpaceOnUse">
<stop stop-color="#0530AD"/>
<stop offset="0.916667" stop-color="#0530AD" stop-opacity="0"/>
</linearGradient>
<linearGradient id="paint50_linear_1313_420" x1="367.108" y1="439.783" x2="367.108" y2="644.838" gradientUnits="userSpaceOnUse">
<stop stop-color="#0530AD"/>
<stop offset="0.916667" stop-color="#0530AD" stop-opacity="0"/>
</linearGradient>
<linearGradient id="paint51_linear_1313_420" x1="367.108" y1="439.783" x2="367.108" y2="564.131" gradientUnits="userSpaceOnUse">
<stop stop-color="#0530AD"/>
<stop offset="0.885417" stop-color="#0530AD" stop-opacity="0"/>
</linearGradient>
<linearGradient id="paint52_linear_1313_420" x1="383.571" y1="427" x2="383.571" y2="454.31" gradientUnits="userSpaceOnUse">
<stop stop-color="#0530AD" stop-opacity="0.67"/>
<stop offset="0.916667" stop-color="#0530AD" stop-opacity="0.47"/>
</linearGradient>
<linearGradient id="paint53_linear_1313_420" x1="383.571" y1="427" x2="383.571" y2="454.31" gradientUnits="userSpaceOnUse">
<stop stop-color="#0530AD"/>
<stop offset="0.916667" stop-color="#0530AD" stop-opacity="0"/>
</linearGradient>
<linearGradient id="paint54_linear_1313_420" x1="1194.57" y1="201.671" x2="1194.57" y2="495" gradientUnits="userSpaceOnUse">
<stop stop-color="#0530AD"/>
<stop offset="0.916667" stop-color="#0530AD" stop-opacity="0"/>
</linearGradient>
<linearGradient id="paint55_linear_1313_420" x1="1194.57" y1="201.671" x2="1194.57" y2="296.363" gradientUnits="userSpaceOnUse">
<stop stop-color="#0530AD"/>
<stop offset="0.916667" stop-color="#0530AD" stop-opacity="0"/>
</linearGradient>
<linearGradient id="paint56_linear_1313_420" x1="1158.34" y1="201.671" x2="1158.34" y2="437" gradientUnits="userSpaceOnUse">
<stop stop-color="#0530AD"/>
<stop offset="0.916667" stop-color="#0530AD" stop-opacity="0"/>
</linearGradient>
<linearGradient id="paint57_linear_1313_420" x1="1158.34" y1="201.671" x2="1158.34" y2="344.377" gradientUnits="userSpaceOnUse">
<stop stop-color="#0530AD"/>
<stop offset="0.885417" stop-color="#0530AD" stop-opacity="0"/>
</linearGradient>
<linearGradient id="paint58_linear_1313_420" x1="1177.23" y1="187" x2="1177.23" y2="218.342" gradientUnits="userSpaceOnUse">
<stop stop-color="#0530AD" stop-opacity="0.67"/>
<stop offset="0.916667" stop-color="#0530AD" stop-opacity="0.47"/>
</linearGradient>
<linearGradient id="paint59_linear_1313_420" x1="1177.23" y1="187" x2="1177.23" y2="218.342" gradientUnits="userSpaceOnUse">
<stop stop-color="#0530AD"/>
<stop offset="0.916667" stop-color="#0530AD" stop-opacity="0"/>
</linearGradient>
<linearGradient id="paint60_linear_1313_420" x1="1142.57" y1="67.6707" x2="1142.57" y2="361" gradientUnits="userSpaceOnUse">
<stop stop-color="#0530AD"/>
<stop offset="0.916667" stop-color="#0530AD" stop-opacity="0"/>
</linearGradient>
<linearGradient id="paint61_linear_1313_420" x1="1142.57" y1="67.6707" x2="1142.57" y2="162.363" gradientUnits="userSpaceOnUse">
<stop stop-color="#0530AD"/>
<stop offset="0.916667" stop-color="#0530AD" stop-opacity="0"/>
</linearGradient>
<linearGradient id="paint62_linear_1313_420" x1="1106.34" y1="67.6707" x2="1106.34" y2="303" gradientUnits="userSpaceOnUse">
<stop stop-color="#0530AD"/>
<stop offset="0.916667" stop-color="#0530AD" stop-opacity="0"/>
</linearGradient>
<linearGradient id="paint63_linear_1313_420" x1="1106.34" y1="67.6707" x2="1106.34" y2="210.377" gradientUnits="userSpaceOnUse">
<stop stop-color="#0530AD"/>
<stop offset="0.885417" stop-color="#0530AD" stop-opacity="0"/>
</linearGradient>
<linearGradient id="paint64_linear_1313_420" x1="1125.23" y1="53" x2="1125.23" y2="84.342" gradientUnits="userSpaceOnUse">
<stop stop-color="#0530AD" stop-opacity="0.67"/>
<stop offset="0.916667" stop-color="#0530AD" stop-opacity="0.47"/>
</linearGradient>
<linearGradient id="paint65_linear_1313_420" x1="1125.23" y1="53" x2="1125.23" y2="84.342" gradientUnits="userSpaceOnUse">
<stop stop-color="#0530AD"/>
<stop offset="0.916667" stop-color="#0530AD" stop-opacity="0"/>
</linearGradient>
<linearGradient id="paint66_linear_1313_420" x1="267.626" y1="328.914" x2="267.626" y2="608.472" gradientUnits="userSpaceOnUse">
<stop stop-color="#0530AD"/>
<stop offset="0.916667" stop-color="#0530AD" stop-opacity="0"/>
</linearGradient>
<linearGradient id="paint67_linear_1313_420" x1="267.626" y1="328.914" x2="267.626" y2="496.178" gradientUnits="userSpaceOnUse">
<stop stop-color="#0530AD"/>
<stop offset="0.916667" stop-color="#0530AD" stop-opacity="0"/>
</linearGradient>
<linearGradient id="paint68_linear_1313_420" x1="203.626" y1="328.914" x2="203.626" y2="620.251" gradientUnits="userSpaceOnUse">
<stop stop-color="#0530AD"/>
<stop offset="0.916667" stop-color="#0530AD" stop-opacity="0"/>
</linearGradient>
<linearGradient id="paint69_linear_1313_420" x1="203.626" y1="328.914" x2="203.626" y2="580.988" gradientUnits="userSpaceOnUse">
<stop stop-color="#0530AD"/>
<stop offset="0.885417" stop-color="#0530AD" stop-opacity="0"/>
</linearGradient>
<linearGradient id="paint70_linear_1313_420" x1="237" y1="303" x2="237" y2="358.362" gradientUnits="userSpaceOnUse">
<stop stop-color="#0530AD" stop-opacity="0.67"/>
<stop offset="0.916667" stop-color="#0530AD" stop-opacity="0.47"/>
</linearGradient>
<linearGradient id="paint71_linear_1313_420" x1="237" y1="303" x2="237" y2="358.362" gradientUnits="userSpaceOnUse">
<stop stop-color="#0530AD"/>
<stop offset="0.916667" stop-color="#0530AD" stop-opacity="0"/>
</linearGradient>
<linearGradient id="paint72_linear_1313_420" x1="531.5" y1="331.759" x2="531.5" y2="534.132" gradientUnits="userSpaceOnUse">
<stop stop-color="#0530AD"/>
<stop offset="0.916667" stop-color="#0530AD" stop-opacity="0"/>
</linearGradient>
<linearGradient id="paint73_linear_1313_420" x1="531.5" y1="331.759" x2="531.5" y2="452.842" gradientUnits="userSpaceOnUse">
<stop stop-color="#0530AD"/>
<stop offset="0.916667" stop-color="#0530AD" stop-opacity="0"/>
</linearGradient>
<linearGradient id="paint74_linear_1313_420" x1="485.17" y1="331.759" x2="485.17" y2="542.659" gradientUnits="userSpaceOnUse">
<stop stop-color="#0530AD"/>
<stop offset="0.916667" stop-color="#0530AD" stop-opacity="0"/>
</linearGradient>
<linearGradient id="paint75_linear_1313_420" x1="485.17" y1="331.759" x2="485.17" y2="514.235" gradientUnits="userSpaceOnUse">
<stop stop-color="#0530AD"/>
<stop offset="0.885417" stop-color="#0530AD" stop-opacity="0"/>
</linearGradient>
<linearGradient id="paint76_linear_1313_420" x1="509.33" y1="313" x2="509.33" y2="353.077" gradientUnits="userSpaceOnUse">
<stop stop-color="#0530AD" stop-opacity="0.67"/>
<stop offset="0.916667" stop-color="#0530AD" stop-opacity="0.47"/>
</linearGradient>
<linearGradient id="paint77_linear_1313_420" x1="509.33" y1="313" x2="509.33" y2="353.077" gradientUnits="userSpaceOnUse">
<stop stop-color="#0530AD"/>
<stop offset="0.916667" stop-color="#0530AD" stop-opacity="0"/>
</linearGradient>
<linearGradient id="paint78_linear_1313_420" x1="293.51" y1="150.036" x2="293.51" y2="355.394" gradientUnits="userSpaceOnUse">
<stop stop-color="#0530AD"/>
<stop offset="0.916667" stop-color="#0530AD" stop-opacity="0"/>
</linearGradient>
<linearGradient id="paint79_linear_1313_420" x1="293.51" y1="150.036" x2="293.51" y2="272.905" gradientUnits="userSpaceOnUse">
<stop stop-color="#0530AD"/>
<stop offset="0.916667" stop-color="#0530AD" stop-opacity="0"/>
</linearGradient>
<linearGradient id="paint80_linear_1313_420" x1="246.497" y1="150.036" x2="246.497" y2="364.047" gradientUnits="userSpaceOnUse">
<stop stop-color="#0530AD"/>
<stop offset="0.916667" stop-color="#0530AD" stop-opacity="0"/>
</linearGradient>
<linearGradient id="paint81_linear_1313_420" x1="246.497" y1="150.036" x2="246.497" y2="335.205" gradientUnits="userSpaceOnUse">
<stop stop-color="#0530AD"/>
<stop offset="0.885417" stop-color="#0530AD" stop-opacity="0"/>
</linearGradient>
<linearGradient id="paint82_linear_1313_420" x1="271.013" y1="131" x2="271.013" y2="171.668" gradientUnits="userSpaceOnUse">
<stop stop-color="#0530AD" stop-opacity="0.67"/>
<stop offset="0.916667" stop-color="#0530AD" stop-opacity="0.47"/>
</linearGradient>
<linearGradient id="paint83_linear_1313_420" x1="271.013" y1="131" x2="271.013" y2="171.668" gradientUnits="userSpaceOnUse">
<stop stop-color="#0530AD"/>
<stop offset="0.916667" stop-color="#0530AD" stop-opacity="0"/>
</linearGradient>
<linearGradient id="paint84_linear_1313_420" x1="456.442" y1="78.7061" x2="456.442" y2="183.415" gradientUnits="userSpaceOnUse">
<stop stop-color="#0530AD"/>
<stop offset="0.916667" stop-color="#0530AD" stop-opacity="0"/>
</linearGradient>
<linearGradient id="paint85_linear_1313_420" x1="456.442" y1="78.7061" x2="456.442" y2="141.355" gradientUnits="userSpaceOnUse">
<stop stop-color="#0530AD"/>
<stop offset="0.916667" stop-color="#0530AD" stop-opacity="0"/>
</linearGradient>
<linearGradient id="paint86_linear_1313_420" x1="432.471" y1="78.7061" x2="432.471" y2="187.827" gradientUnits="userSpaceOnUse">
<stop stop-color="#0530AD"/>
<stop offset="0.916667" stop-color="#0530AD" stop-opacity="0"/>
</linearGradient>
<linearGradient id="paint87_linear_1313_420" x1="432.471" y1="78.7061" x2="432.471" y2="173.12" gradientUnits="userSpaceOnUse">
<stop stop-color="#0530AD"/>
<stop offset="0.885417" stop-color="#0530AD" stop-opacity="0"/>
</linearGradient>
<linearGradient id="paint88_linear_1313_420" x1="444.971" y1="69" x2="444.971" y2="89.7358" gradientUnits="userSpaceOnUse">
<stop stop-color="#0530AD" stop-opacity="0.67"/>
<stop offset="0.916667" stop-color="#0530AD" stop-opacity="0.47"/>
</linearGradient>
<linearGradient id="paint89_linear_1313_420" x1="444.971" y1="69" x2="444.971" y2="89.7358" gradientUnits="userSpaceOnUse">
<stop stop-color="#0530AD"/>
<stop offset="0.916667" stop-color="#0530AD" stop-opacity="0"/>
</linearGradient>
<linearGradient id="paint90_linear_1313_420" x1="426.772" y1="229.357" x2="426.772" y2="373.446" gradientUnits="userSpaceOnUse">
<stop stop-color="#0530AD"/>
<stop offset="0.916667" stop-color="#0530AD" stop-opacity="0"/>
</linearGradient>
<linearGradient id="paint91_linear_1313_420" x1="426.772" y1="229.357" x2="426.772" y2="315.567" gradientUnits="userSpaceOnUse">
<stop stop-color="#0530AD"/>
<stop offset="0.916667" stop-color="#0530AD" stop-opacity="0"/>
</linearGradient>
<linearGradient id="paint92_linear_1313_420" x1="393.785" y1="229.357" x2="393.785" y2="379.517" gradientUnits="userSpaceOnUse">
<stop stop-color="#0530AD"/>
<stop offset="0.916667" stop-color="#0530AD" stop-opacity="0"/>
</linearGradient>
<linearGradient id="paint93_linear_1313_420" x1="393.785" y1="229.357" x2="393.785" y2="359.28" gradientUnits="userSpaceOnUse">
<stop stop-color="#0530AD"/>
<stop offset="0.885417" stop-color="#0530AD" stop-opacity="0"/>
</linearGradient>
<linearGradient id="paint94_linear_1313_420" x1="410.987" y1="216" x2="410.987" y2="244.535" gradientUnits="userSpaceOnUse">
<stop stop-color="#0530AD" stop-opacity="0.67"/>
<stop offset="0.916667" stop-color="#0530AD" stop-opacity="0.47"/>
</linearGradient>
<linearGradient id="paint95_linear_1313_420" x1="410.987" y1="216" x2="410.987" y2="244.535" gradientUnits="userSpaceOnUse">
<stop stop-color="#0530AD"/>
<stop offset="0.916667" stop-color="#0530AD" stop-opacity="0"/>
</linearGradient>
<linearGradient id="paint96_linear_1313_420" x1="587.5" y1="163.759" x2="587.5" y2="366.132" gradientUnits="userSpaceOnUse">
<stop stop-color="#0530AD"/>
<stop offset="0.916667" stop-color="#0530AD" stop-opacity="0"/>
</linearGradient>
<linearGradient id="paint97_linear_1313_420" x1="587.5" y1="163.759" x2="587.5" y2="284.842" gradientUnits="userSpaceOnUse">
<stop stop-color="#0530AD"/>
<stop offset="0.916667" stop-color="#0530AD" stop-opacity="0"/>
</linearGradient>
<linearGradient id="paint98_linear_1313_420" x1="541.17" y1="163.759" x2="541.17" y2="374.659" gradientUnits="userSpaceOnUse">
<stop stop-color="#0530AD"/>
<stop offset="0.916667" stop-color="#0530AD" stop-opacity="0"/>
</linearGradient>
<linearGradient id="paint99_linear_1313_420" x1="541.17" y1="163.759" x2="541.17" y2="346.235" gradientUnits="userSpaceOnUse">
<stop stop-color="#0530AD"/>
<stop offset="0.885417" stop-color="#0530AD" stop-opacity="0"/>
</linearGradient>
<linearGradient id="paint100_linear_1313_420" x1="565.33" y1="145" x2="565.33" y2="185.077" gradientUnits="userSpaceOnUse">
<stop stop-color="#0530AD" stop-opacity="0.67"/>
<stop offset="0.916667" stop-color="#0530AD" stop-opacity="0.47"/>
</linearGradient>
<linearGradient id="paint101_linear_1313_420" x1="565.33" y1="145" x2="565.33" y2="185.077" gradientUnits="userSpaceOnUse">
<stop stop-color="#0530AD"/>
<stop offset="0.916667" stop-color="#0530AD" stop-opacity="0"/>
</linearGradient>
<linearGradient id="paint102_linear_1313_420" x1="114.273" y1="182.747" x2="114.273" y2="514.442" gradientUnits="userSpaceOnUse">
<stop stop-color="#0530AD"/>
<stop offset="0.916667" stop-color="#0530AD" stop-opacity="0"/>
</linearGradient>
<linearGradient id="paint103_linear_1313_420" x1="114.273" y1="182.747" x2="114.273" y2="381.205" gradientUnits="userSpaceOnUse">
<stop stop-color="#0530AD"/>
<stop offset="0.916667" stop-color="#0530AD" stop-opacity="0"/>
</linearGradient>
<linearGradient id="paint104_linear_1313_420" x1="38.3374" y1="182.747" x2="38.3374" y2="528.418" gradientUnits="userSpaceOnUse">
<stop stop-color="#0530AD"/>
<stop offset="0.916667" stop-color="#0530AD" stop-opacity="0"/>
</linearGradient>
<linearGradient id="paint105_linear_1313_420" x1="38.3374" y1="182.747" x2="38.3374" y2="481.832" gradientUnits="userSpaceOnUse">
<stop stop-color="#0530AD"/>
<stop offset="0.885417" stop-color="#0530AD" stop-opacity="0"/>
</linearGradient>
<linearGradient id="paint106_linear_1313_420" x1="77.9358" y1="152" x2="77.9358" y2="217.687" gradientUnits="userSpaceOnUse">
<stop stop-color="#0530AD" stop-opacity="0.67"/>
<stop offset="0.916667" stop-color="#0530AD" stop-opacity="0.47"/>
</linearGradient>
<linearGradient id="paint107_linear_1313_420" x1="77.9358" y1="152" x2="77.9358" y2="217.687" gradientUnits="userSpaceOnUse">
<stop stop-color="#0530AD"/>
<stop offset="0.916667" stop-color="#0530AD" stop-opacity="0"/>
</linearGradient>
<linearGradient id="paint108_linear_1313_420" x1="778.652" y1="70.1604" x2="778.652" y2="380.268" gradientUnits="userSpaceOnUse">
<stop stop-color="#0530AD"/>
<stop offset="0.916667" stop-color="#0530AD" stop-opacity="0"/>
</linearGradient>
<linearGradient id="paint109_linear_1313_420" x1="778.652" y1="70.1604" x2="778.652" y2="264.674" gradientUnits="userSpaceOnUse">
<stop stop-color="#0530AD"/>
<stop offset="0.916667" stop-color="#0530AD" stop-opacity="0"/>
</linearGradient>
<linearGradient id="paint110_linear_1313_420" x1="704.225" y1="70.1604" x2="704.225" y2="408.962" gradientUnits="userSpaceOnUse">
<stop stop-color="#0530AD"/>
<stop offset="0.916667" stop-color="#0530AD" stop-opacity="0"/>
</linearGradient>
<linearGradient id="paint111_linear_1313_420" x1="704.225" y1="70.1604" x2="704.225" y2="363.301" gradientUnits="userSpaceOnUse">
<stop stop-color="#0530AD"/>
<stop offset="0.885417" stop-color="#0530AD" stop-opacity="0"/>
</linearGradient>
<linearGradient id="paint112_linear_1313_420" x1="743.036" y1="40.0244" x2="743.036" y2="104.406" gradientUnits="userSpaceOnUse">
<stop stop-color="#0530AD" stop-opacity="0.67"/>
<stop offset="0.916667" stop-color="#0530AD" stop-opacity="0.47"/>
</linearGradient>
<linearGradient id="paint113_linear_1313_420" x1="743.036" y1="40.0244" x2="743.036" y2="104.406" gradientUnits="userSpaceOnUse">
<stop stop-color="#0530AD"/>
<stop offset="0.916667" stop-color="#0530AD" stop-opacity="0"/>
</linearGradient>
<linearGradient id="paint114_linear_1313_420" x1="778.652" y1="51.8677" x2="778.652" y2="361.976" gradientUnits="userSpaceOnUse">
<stop stop-color="#0530AD"/>
<stop offset="0.916667" stop-color="#0530AD" stop-opacity="0"/>
</linearGradient>
<linearGradient id="paint115_linear_1313_420" x1="778.652" y1="51.8677" x2="778.652" y2="246.381" gradientUnits="userSpaceOnUse">
<stop stop-color="#0530AD"/>
<stop offset="0.916667" stop-color="#0530AD" stop-opacity="0"/>
</linearGradient>
<linearGradient id="paint116_linear_1313_420" x1="704.225" y1="51.8677" x2="704.225" y2="390.669" gradientUnits="userSpaceOnUse">
<stop stop-color="#0530AD"/>
<stop offset="0.916667" stop-color="#0530AD" stop-opacity="0"/>
</linearGradient>
<linearGradient id="paint117_linear_1313_420" x1="704.225" y1="51.8677" x2="704.225" y2="345.008" gradientUnits="userSpaceOnUse">
<stop stop-color="#0530AD"/>
<stop offset="0.885417" stop-color="#0530AD" stop-opacity="0"/>
</linearGradient>
<linearGradient id="paint118_linear_1313_420" x1="743.036" y1="21.7317" x2="743.036" y2="86.113" gradientUnits="userSpaceOnUse">
<stop stop-color="#0530AD" stop-opacity="0.67"/>
<stop offset="0.916667" stop-color="#0530AD" stop-opacity="0.47"/>
</linearGradient>
<linearGradient id="paint119_linear_1313_420" x1="743.036" y1="21.7317" x2="743.036" y2="86.113" gradientUnits="userSpaceOnUse">
<stop stop-color="#0530AD"/>
<stop offset="0.916667" stop-color="#0530AD" stop-opacity="0"/>
</linearGradient>
<linearGradient id="paint120_linear_1313_420" x1="778.652" y1="31.136" x2="778.652" y2="583.317" gradientUnits="userSpaceOnUse">
<stop stop-color="#0530AD"/>
<stop offset="0.916667" stop-color="#0530AD" stop-opacity="0"/>
</linearGradient>
<linearGradient id="paint121_linear_1313_420" x1="778.652" y1="31.136" x2="778.652" y2="225.65" gradientUnits="userSpaceOnUse">
<stop stop-color="#0530AD"/>
<stop offset="0.916667" stop-color="#0530AD" stop-opacity="0"/>
</linearGradient>
<linearGradient id="paint122_linear_1313_420" x1="704.225" y1="31.136" x2="704.225" y2="591.244" gradientUnits="userSpaceOnUse">
<stop stop-color="#0530AD"/>
<stop offset="0.916667" stop-color="#0530AD" stop-opacity="0"/>
</linearGradient>
<linearGradient id="paint123_linear_1313_420" x1="704.225" y1="31.136" x2="704.225" y2="324.277" gradientUnits="userSpaceOnUse">
<stop stop-color="#0530AD"/>
<stop offset="0.885417" stop-color="#0530AD" stop-opacity="0"/>
</linearGradient>
<linearGradient id="paint124_linear_1313_420" x1="743.036" y1="1" x2="743.036" y2="65.3813" gradientUnits="userSpaceOnUse">
<stop stop-color="#0530AD" stop-opacity="0.67"/>
<stop offset="0.916667" stop-color="#0530AD" stop-opacity="0.47"/>
</linearGradient>
<linearGradient id="paint125_linear_1313_420" x1="743.036" y1="1" x2="743.036" y2="65.3813" gradientUnits="userSpaceOnUse">
<stop stop-color="#0530AD"/>
<stop offset="0.916667" stop-color="#0530AD" stop-opacity="0"/>
</linearGradient>
<linearGradient id="paint126_linear_1313_420" x1="743" y1="1" x2="743" y2="65.6341" gradientUnits="userSpaceOnUse">
<stop stop-color="#0530AD" stop-opacity="0.67"/>
<stop offset="0.916667" stop-color="#0530AD" stop-opacity="0.47"/>
</linearGradient>
<linearGradient id="paint127_linear_1313_420" x1="743" y1="1" x2="743" y2="65.6341" gradientUnits="userSpaceOnUse">
<stop stop-color="#0041FF"/>
<stop offset="0.916667" stop-color="#0035CE" stop-opacity="0.57"/>
</linearGradient>
<linearGradient id="paint128_linear_1313_420" x1="738.25" y1="66.25" x2="738.25" y2="282.629" gradientUnits="userSpaceOnUse">
<stop stop-color="#00D1FF" stop-opacity="0"/>
<stop offset="0.286458" stop-color="#00D1FF"/>
<stop offset="1" stop-color="#00D1FF" stop-opacity="0"/>
</linearGradient>
<linearGradient id="paint129_linear_1313_420" x1="816.25" y1="36.25" x2="816.25" y2="165.047" gradientUnits="userSpaceOnUse">
<stop stop-color="#00D1FF" stop-opacity="0"/>
<stop offset="0.286458" stop-color="#00D1FF"/>
<stop offset="1" stop-color="#00D1FF" stop-opacity="0"/>
</linearGradient>
<linearGradient id="paint130_linear_1313_420" x1="667" y1="54.25" x2="667" y2="291.236" gradientUnits="userSpaceOnUse">
<stop stop-color="#00D1FF" stop-opacity="0"/>
<stop offset="0.286458" stop-color="#00D1FF"/>
<stop offset="1" stop-color="#00D1FF" stop-opacity="0"/>
</linearGradient>
<linearGradient id="paint131_linear_1313_420" x1="939.554" y1="302.583" x2="939.554" y2="481.482" gradientUnits="userSpaceOnUse">
<stop stop-color="#0530AD"/>
<stop offset="0.916667" stop-color="#0530AD" stop-opacity="0"/>
</linearGradient>
<linearGradient id="paint132_linear_1313_420" x1="939.554" y1="302.583" x2="939.554" y2="453.341" gradientUnits="userSpaceOnUse">
<stop stop-color="#0530AD"/>
<stop offset="0.916667" stop-color="#0530AD" stop-opacity="0"/>
</linearGradient>
<linearGradient id="paint133_linear_1313_420" x1="898.598" y1="302.583" x2="898.598" y2="598" gradientUnits="userSpaceOnUse">
<stop stop-color="#0530AD"/>
<stop offset="0.916667" stop-color="#0530AD" stop-opacity="0"/>
</linearGradient>
<linearGradient id="paint134_linear_1313_420" x1="898.598" y1="302.583" x2="898.598" y2="463.894" gradientUnits="userSpaceOnUse">
<stop stop-color="#0530AD"/>
<stop offset="0.885417" stop-color="#0530AD" stop-opacity="0"/>
</linearGradient>
<linearGradient id="paint135_linear_1313_420" x1="919.956" y1="286" x2="919.956" y2="321.428" gradientUnits="userSpaceOnUse">
<stop stop-color="#0530AD" stop-opacity="0.67"/>
<stop offset="0.916667" stop-color="#0530AD" stop-opacity="0.47"/>
</linearGradient>
<linearGradient id="paint136_linear_1313_420" x1="919.956" y1="286" x2="919.956" y2="321.428" gradientUnits="userSpaceOnUse">
<stop stop-color="#0530AD"/>
<stop offset="0.916667" stop-color="#0530AD" stop-opacity="0"/>
</linearGradient>
<linearGradient id="paint137_linear_1313_420" x1="531.5" y1="331.759" x2="531.5" y2="534.132" gradientUnits="userSpaceOnUse">
<stop stop-color="#0530AD"/>
<stop offset="0.916667" stop-color="#0530AD" stop-opacity="0"/>
</linearGradient>
<linearGradient id="paint138_linear_1313_420" x1="531.5" y1="331.759" x2="531.5" y2="452.842" gradientUnits="userSpaceOnUse">
<stop stop-color="#0530AD"/>
<stop offset="0.916667" stop-color="#0530AD" stop-opacity="0"/>
</linearGradient>
<linearGradient id="paint139_linear_1313_420" x1="485.17" y1="331.759" x2="485.17" y2="542.659" gradientUnits="userSpaceOnUse">
<stop stop-color="#0530AD"/>
<stop offset="0.916667" stop-color="#0530AD" stop-opacity="0"/>
</linearGradient>
<linearGradient id="paint140_linear_1313_420" x1="485.17" y1="331.759" x2="485.17" y2="514.235" gradientUnits="userSpaceOnUse">
<stop stop-color="#0530AD"/>
<stop offset="0.885417" stop-color="#0530AD" stop-opacity="0"/>
</linearGradient>
<linearGradient id="paint141_linear_1313_420" x1="509.33" y1="313" x2="509.33" y2="353.077" gradientUnits="userSpaceOnUse">
<stop stop-color="#0530AD" stop-opacity="0.67"/>
<stop offset="0.916667" stop-color="#0530AD" stop-opacity="0.47"/>
</linearGradient>
<linearGradient id="paint142_linear_1313_420" x1="509.33" y1="313" x2="509.33" y2="353.077" gradientUnits="userSpaceOnUse">
<stop stop-color="#0530AD"/>
<stop offset="0.916667" stop-color="#0530AD" stop-opacity="0"/>
</linearGradient>
<linearGradient id="paint143_linear_1313_420" x1="587.5" y1="163.759" x2="587.5" y2="366.132" gradientUnits="userSpaceOnUse">
<stop stop-color="#0530AD"/>
<stop offset="0.916667" stop-color="#0530AD" stop-opacity="0"/>
</linearGradient>
<linearGradient id="paint144_linear_1313_420" x1="587.5" y1="163.759" x2="587.5" y2="284.842" gradientUnits="userSpaceOnUse">
<stop stop-color="#0530AD"/>
<stop offset="0.916667" stop-color="#0530AD" stop-opacity="0"/>
</linearGradient>
<linearGradient id="paint145_linear_1313_420" x1="541.17" y1="163.759" x2="541.17" y2="374.659" gradientUnits="userSpaceOnUse">
<stop stop-color="#0530AD"/>
<stop offset="0.916667" stop-color="#0530AD" stop-opacity="0"/>
</linearGradient>
<linearGradient id="paint146_linear_1313_420" x1="541.17" y1="163.759" x2="541.17" y2="346.235" gradientUnits="userSpaceOnUse">
<stop stop-color="#0530AD"/>
<stop offset="0.885417" stop-color="#0530AD" stop-opacity="0"/>
</linearGradient>
<linearGradient id="paint147_linear_1313_420" x1="565.33" y1="145" x2="565.33" y2="185.077" gradientUnits="userSpaceOnUse">
<stop stop-color="#0530AD" stop-opacity="0.67"/>
<stop offset="0.916667" stop-color="#0530AD" stop-opacity="0.47"/>
</linearGradient>
<linearGradient id="paint148_linear_1313_420" x1="565.33" y1="145" x2="565.33" y2="185.077" gradientUnits="userSpaceOnUse">
<stop stop-color="#0530AD"/>
<stop offset="0.916667" stop-color="#0530AD" stop-opacity="0"/>
</linearGradient>
</defs>
</svg>
