<svg width="203" height="177" viewBox="0 0 203 177" fill="none" xmlns="http://www.w3.org/2000/svg">
<path d="M101.52 0H101.484C43.2503 0.146839 0 43.2578 0 102.18C0 133.318 11.0959 158.57 29.0634 177H173.941C191.928 158.57 203 133.318 203 102.18C203 43.2578 159.754 0.146839 101.52 0ZM163.851 137.612L101.52 81.9756H101.5L39.1528 137.612C34.5797 129.377 31.4609 115.177 31.4609 103.803C31.4609 67.518 59.6644 33.3363 101.484 33.3363H101.52C143.34 33.3363 171.543 67.518 171.543 103.803C171.543 115.177 168.444 129.377 163.851 137.612Z" fill="#0530AD"/>
</svg>
